<?xml version="1.0" encoding="iso-8859-1"?>
<!-- Generator: Adobe Illustrator 19.0.0, SVG Export Plug-In . SVG Version: 6.00 Build 0)  -->
<svg xmlns="http://www.w3.org/2000/svg" xmlns:xlink="http://www.w3.org/1999/xlink" version="1.1" id="Layer_1" x="0px" y="0px" viewBox="0 0 512 512" style="enable-background:new 0 0 512 512;" xml:space="preserve">
<path style="fill:#FF9900;" d="M382.421,97.987v111.053H193.767V50.842h141.494c0.605,0,1.196,0.015,1.801,0.043  c11.632,0.433,22.196,5.073,30.195,12.468C376.583,71.972,382.421,84.294,382.421,97.987z"/>
<g>
	<rect x="193.766" y="179.064" style="fill:#FF8800;" width="188.656" height="29.975"/>
	<path style="fill:#FF8800;" d="M382.421,97.987v111.053H263.945v-84.245c0-8.698,4.05-16.712,10.593-22.326l62.525-51.585   c11.632,0.433,22.196,5.073,30.195,12.468C376.583,71.972,382.421,84.294,382.421,97.987z"/>
</g>
<path style="fill:#E47500;" d="M382.421,97.987v26.808h-89.65l74.487-61.443C376.583,71.972,382.421,84.294,382.421,97.987z"/>
<rect x="152.451" y="37.815" style="fill:#C7C5CC;" width="41.318" height="426.778"/>
<path style="fill:#ADACB2;" d="M193.771,368.285v96.306h-41.318V375.07C164.532,371.776,178.547,369.111,193.771,368.285z"/>
<path style="fill:#FF9900;" d="M502.747,282.99H339.921c-26.041,0-47.152-21.111-47.152-47.152V124.79h209.979l-64.137,79.1  L502.747,282.99z"/>
<path style="fill:#FF8800;" d="M502.75,282.994H339.917c-26.044,0-47.146-21.115-47.146-47.159v-31.781  c0,26.031,21.101,47.146,47.146,47.146h137.048L502.75,282.994z"/>
<path style="fill:#A07852;" d="M32.934,474.183c15.252-8.806,35.639-20.625,62.939-36.516c104.108-60.6,136.738-9.324,195.236-7.769  c47.167,1.253,77.216,32.302,87.088,44.285H32.934z"/>
<path style="fill:#896746;" d="M32.934,474.187h40.893c6.794-3.951,14.136-8.216,22.049-12.819  c104.104-60.6,136.735-9.324,195.238-7.773c25.627,0.688,46.196,10.162,61.217,20.592h25.86  c-9.871-11.991-39.914-43.037-87.078-44.285c-58.503-1.561-91.133-52.838-195.238,7.762C68.572,453.56,48.19,465.377,32.934,474.187  z"/>
<path d="M366.268,76.163c4.488,6.326,6.899,13.852,6.899,21.824v17.551h-54.634L366.268,76.163z M409.395,134.044  c5.111,0,9.253-4.142,9.253-9.253s-4.142-9.253-9.253-9.253h-17.721V97.987c0-15.557-6.515-30.54-17.878-41.179  c-0.032-0.032-0.066-0.065-0.099-0.096c-0.054-0.05-0.103-0.104-0.158-0.154c-9.868-9.121-22.699-14.42-36.053-14.916  c-0.748-0.033-1.477-0.052-2.225-0.052H275.33c-5.111,0-9.253,4.142-9.253,9.253s4.142,9.253,9.253,9.253h59.931  c0.463,0,0.914,0.01,1.458,0.037c5.332,0.199,10.519,1.531,15.241,3.845l-64.972,53.595c-2.157,1.728-3.472,4.449-3.472,7.219  v74.996h-80.496V60.095h33.652c5.111,0,9.253-4.142,9.253-9.253s-4.143-9.253-9.253-9.253H203.02v-3.772  c0-5.111-4.143-9.253-9.253-9.253H152.45c-5.111,0-9.253,4.142-9.253,9.253V268.34c0,5.111,4.143,9.253,9.253,9.253  c5.11,0,9.253-4.142,9.253-9.253V47.07h22.811V209.04v189.937c-7.147,0.138-14.718,0.872-22.811,2.397v-98.08  c0-5.111-4.143-9.253-9.253-9.253c-5.11,0-9.253,4.142-9.253,9.253v102.727c-15.397,4.791-32.555,12.342-51.978,23.649  c-23.672,13.778-44.093,25.627-60.765,35.259H9.253c-5.111,0-9.253,4.142-9.253,9.253c0,5.111,4.143,9.253,9.253,9.253h392.836  c5.111,0,9.253-4.142,9.253-9.253c0-5.111-4.142-9.253-9.253-9.253h-19.635c-10.57-11.903-33.84-33.628-68.24-41.424  c-4.984-1.138-9.939,1.995-11.069,6.98c-1.131,4.983,1.995,9.94,6.978,11.069c19.625,4.447,35.067,14.282,45.867,23.376H67.382  c10.189-5.912,21.259-12.347,33.146-19.267c69.211-40.286,103.257-29.203,139.3-17.469c10.184,3.315,20.713,6.744,31.906,8.853  c5.024,0.948,9.862-2.356,10.807-7.378c0.947-5.023-2.356-9.861-7.378-10.807c-10.026-1.889-19.536-4.985-29.606-8.264  c-13.092-4.263-26.81-8.729-42.537-10.662V218.293h80.496v17.545c0,31.101,25.303,56.405,56.405,56.405h162.826  c3.567,0,6.818-2.052,8.353-5.273s1.082-7.037-1.166-9.808l-59.411-73.272l59.411-73.271c2.246-2.771,2.701-6.588,1.166-9.808  c-1.535-3.22-4.786-5.273-8.353-5.273h-53.872c-5.111,0-9.253,4.142-9.253,9.253s4.142,9.253,9.253,9.253h34.456l-51.907,64.019  c-2.755,3.396-2.755,8.258,0,11.656l51.908,64.02H339.921c-20.898,0-37.898-17.002-37.898-37.898V134.044L409.395,134.044  L409.395,134.044z"/>
<g>
</g>
<g>
</g>
<g>
</g>
<g>
</g>
<g>
</g>
<g>
</g>
<g>
</g>
<g>
</g>
<g>
</g>
<g>
</g>
<g>
</g>
<g>
</g>
<g>
</g>
<g>
</g>
<g>
</g>
</svg>
